<svg fill="none" height="300" viewBox="0 0 24 24" width="300" xmlns="http://www.w3.org/2000/svg" version="1.1" xmlns:xlink="http://www.w3.org/1999/xlink" xmlns:svgjs="http://svgjs.dev/svgjs"><rect width="24" height="24" rx="4.8" ry="4.8" x="0" y="0" shape="true" transform="matrix(0.95,0,0,0.95,0.6000000000000014,0.6000000000000014)" fill-opacity="1" fill="#50384e"/><g width="100%" height="100%" transform="matrix(0.7,0,0,0.7,3.6000000000000014,3.6000000000000014)"><path d="m11.2929 2.29289c.3905-.39052 1.0237-.39052 1.4142 0l3 3c.3905.39053.3905 1.02369 0 1.41422-.3905.39052-1.0237.39052-1.4142 0l-1.2929-1.2929v9.58579c0 .5523-.4477 1-1 1s-1-.4477-1-1v-9.58579l-1.29289 1.2929c-.39053.39052-1.02369.39052-1.41422 0-.39052-.39053-.39052-1.02369 0-1.41422zm-7.2929 8.70711c0-1.10457.89543-2 2-2h2c.55228 0 1 .44772 1 1 0 .5523-.44772 1-1 1h-2v9h12v-9h-2c-.5523 0-1-.4477-1-1 0-.55228.4477-1 1-1h2c1.1046 0 2 .89543 2 2v9c0 1.1046-.8954 2-2 2h-12c-1.10457 0-2-.8954-2-2z" fill="#ffffff" fill-opacity="1" data-original-color="#000000ff" stroke="none" stroke-opacity="1"/></g></svg>